<?xml version="1.0" encoding="UTF-8" standalone="no"?>
<!-- Created with Inkscape (http://www.inkscape.org/) -->

<svg width="1708.6023" height="1459.1959" id="svg2" version="1.1" xmlns="http://www.w3.org/2000/svg" xmlns:svg="http://www.w3.org/2000/svg" xmlns:rdf="http://www.w3.org/1999/02/22-rdf-syntax-ns#" xmlns:cc="http://creativecommons.org/ns#" xmlns:dc="http://purl.org/dc/elements/1.1/">
  <defs id="defs4" />
  <metadata id="metadata7">
    <rdf:RDF>
      <cc:Work rdf:about="">
        <dc:format>image/svg+xml</dc:format>
        <dc:type rdf:resource="http://purl.org/dc/dcmitype/StillImage" />
      </cc:Work>
    </rdf:RDF>
  </metadata>
  <g id="layer2" style="display:inline" transform="translate(-545.69885,-436.77111)">
    <g transform="matrix(0.80086088,0,0,0.80086088,-1954.0007,1272.3658)" id="g4275" style="font-style:normal;font-variant:normal;font-weight:bold;font-stretch:normal;font-size:360.091px;line-height:1000%;font-family:Arial;-inkscape-font-specification:'Arial Bold';letter-spacing:0px;word-spacing:0px;fill:#0b2228;fill-opacity:1;stroke:none" />
    <g id="g4129" transform="translate(-5.20845,-235.32081)">
      <path id="path3017" d="m 1180.89,1145.0301 218.7776,-160.28138 -83.089,-163.34731 z" style="fill:#fd1111;fill-opacity:1;stroke:none" />
      <path style="fill:#fd1f1f;fill-opacity:1;stroke:none" d="m 1180.89,1145.0301 -76.4449,-265.87191 212.1335,-57.75678 z" id="path3019" />
      <path id="path3789" d="m 1230.34,739.79407 -125.8949,139.36412 212.1335,-57.75678 z" style="fill:#fd2626;fill-opacity:1;stroke:none" />
      <path style="fill:#fd2626;fill-opacity:1;stroke:none" d="M 1230.34,739.79407 1104.4451,879.15819 928.69502,769.6836 Z" id="path3791" />
      <path id="path3793" d="M 1230.34,739.79407 1079.4608,676.49562 928.69502,769.6836 Z" style="fill:#fd1111;fill-opacity:1;stroke:none" />
      <path style="fill:#fa0202;fill-opacity:1;stroke:none" d="m 909.41129,672.09192 170.04951,4.4037 -150.76578,93.18798 z" id="path3795" />
      <path id="path3797" d="M 909.41129,672.09192 772.72333,711.66576 928.69502,769.6836 Z" style="fill:#db0202;fill-opacity:1;stroke:none" />
      <path style="fill:#fd0b0b;fill-opacity:1;stroke:none" d="M 799.51094,941.45552 772.72333,711.66576 928.69502,769.6836 Z" id="path3799" />
      <path id="path3801" d="M 799.51094,941.45552 1105.5237,877.96418 928.69502,769.6836 Z" style="fill:#fe2323;fill-opacity:1;stroke:none" />
      <path style="fill:#f40202;fill-opacity:1;stroke:none" d="M 799.51094,941.45552 1105.5237,877.96418 991.18737,1204.9752 Z" id="path3803" />
      <path id="path3805" d="M 1180.89,1145.0301 1105.5237,877.96418 991.18737,1204.9752 Z" style="fill:#fd0b0b;fill-opacity:1;stroke:none" />
      <path id="path3807" d="M 799.51094,941.45552 772.72333,711.66576 621.93107,843.55384 Z" style="fill:#f10202;fill-opacity:1;stroke:none" />
      <path style="fill:#d80202;fill-opacity:1;stroke:none" d="M 799.51094,941.45552 550.9073,996.08544 621.93107,843.55384 Z" id="path3809" />
      <path id="path3811" d="M 799.51094,941.45552 550.9073,996.08544 734.96318,1255.2783 Z" style="fill:#df0202;fill-opacity:1;stroke:none" />
      <path style="fill:#cf0202;fill-opacity:1;stroke:none" d="m 799.51094,941.45552 191.67643,263.51968 -256.22419,50.3031 z" id="path3813" />
      <path style="fill:#cd0202;fill-opacity:1;stroke:none" d="M 551.27831,1293.8064 550.9073,996.08544 734.96318,1255.2783 Z" id="path3815" />
      <path id="path3817" d="m 551.27831,1293.8064 73.15917,186.8568 110.5257,-225.3849 z" style="fill:#b90101;fill-opacity:1;stroke:none" />
      <path style="fill:#9e0101;fill-opacity:1;stroke:none" d="m 913.93095,1479.704 -289.49347,0.9592 110.5257,-225.3849 z" id="path3819" />
      <path id="path3821" d="m 913.93095,1479.704 77.25642,-274.7288 -256.22419,50.3031 z" style="fill:#c10202;fill-opacity:1;stroke:none" />
      <path style="fill:#be0202;fill-opacity:1;stroke:none" d="m 913.93095,1479.704 77.25642,-274.7288 256.64413,160.2034 z" id="path3823" />
      <path id="path3825" d="m 1180.89,1145.0301 -189.70263,59.9451 256.64413,160.2034 z" style="fill:#b60101;fill-opacity:1;stroke:none" />
      <path style="fill:#c10202;fill-opacity:1;stroke:none" d="m 1180.89,1145.0301 282.2224,141.8316 -215.2809,78.3169 z" id="path3827" />
      <path id="path3829" d="m 1180.89,1145.0301 282.2224,141.8316 -63.4448,-302.11322 z" style="fill:#e80202;fill-opacity:1;stroke:none" />
      <path id="path3831" d="m 913.93095,1479.704 321.05655,191.5389 12.844,-306.0643 z" style="fill:#a10101;fill-opacity:1;stroke:none" />
      <path style="fill:#8f0101;fill-opacity:1;stroke:none" d="m 913.93095,1479.704 321.05655,191.5389 -381.31077,100.1584 z" id="path3833" />
      <path id="path3835" d="m 913.93095,1479.704 -289.49347,0.9592 229.23925,290.7381 z" style="fill:#ad0101;fill-opacity:1;stroke:none" />
      <path id="path3837" d="m 1105.6247,1967.7611 129.3628,-296.5182 -381.31077,100.1584 z" style="fill:#7d0101;fill-opacity:1;stroke:none" />
      <path style="fill:#6b0101;fill-opacity:1;stroke:none" d="m 1105.6247,1967.7611 129.3628,-296.5182 167.2394,286.056 z" id="path3839" />
      <path id="path3841" d="m 1105.6247,1967.7611 297.0177,163.5268 -0.4155,-173.989 z" style="fill:#510000;fill-opacity:1;stroke:none" />
      <path id="path3843" d="m 1443.8973,1541.1109 -208.9098,130.132 167.2394,286.056 z" style="fill:#9d0202;fill-opacity:1;stroke:none" />
      <path style="fill:#d30202;fill-opacity:1;stroke:none" d="m 1443.8973,1541.1109 -208.9098,130.132 12.844,-306.0643 z" id="path3845" />
      <path id="path3847" d="m 1443.8973,1541.1109 19.2151,-254.2492 -215.2809,78.3169 z" style="fill:#d00202;fill-opacity:1;stroke:none" />
      <path style="fill:#fd1111;fill-opacity:1;stroke:none" d="m 1662.8981,1070.1408 -199.7857,216.7209 -63.4448,-302.11322 z" id="path3849" />
      <path style="fill:#c70202;fill-opacity:1;stroke:none" d="m 1443.8973,1541.1109 19.2151,-254.2492 233.7946,145.3783 z" id="path3851" />
      <path style="fill:#980101;fill-opacity:1;stroke:none" d="m 1443.8973,1541.1109 260.8603,192.6244 -302.5307,223.5636 z" id="path3853" />
      <path id="path3855" d="m 1698.0564,1965.3484 6.7012,-231.6131 -302.5307,223.5636 z" style="fill:#7d0101;fill-opacity:1;stroke:none" />
      <path style="fill:#500101;fill-opacity:1;stroke:none" d="m 1698.0564,1965.3484 -295.414,165.9395 -0.4155,-173.989 z" id="path3857" />
      <path style="fill:#a10101;fill-opacity:1;stroke:none" d="m 1698.0564,1965.3484 6.7012,-231.6131 239.076,40.0085 z" id="path3859" />
      <path id="path3861" d="m 1920.524,1508.2232 -215.7664,225.5121 239.076,40.0085 z" style="fill:#a40101;fill-opacity:1;stroke:none" />
      <path style="fill:#d30202;fill-opacity:1;stroke:none" d="m 1920.524,1508.2232 210.659,46.5373 -187.3494,218.9833 z" id="path3863" />
      <path style="fill:#b00101;fill-opacity:1;stroke:none" d="M 1920.524,1508.2232 1704.7576,1733.7353 1696.907,1432.24 Z" id="path3865" />
      <path id="path3867" d="m 1443.8973,1541.1109 260.8603,192.6244 -7.8506,-301.4953 z" style="fill:#be0202;fill-opacity:1;stroke:none" />
      <path id="path3869" d="m 1920.524,1508.2232 210.659,46.5373 -83.7344,-286.9019 z" style="fill:#be0202;fill-opacity:1;stroke:none" />
      <path style="fill:#d30202;fill-opacity:1;stroke:none" d="m 2257.7402,1251.4942 -126.5572,303.2663 -83.7344,-286.9019 z" id="path3871" />
      <path style="fill:#cd0202;fill-opacity:1;stroke:none" d="M 1920.524,1508.2232 1696.907,1432.24 2047.4486,1267.8586 Z" id="path3873" />
      <path id="path3875" d="m 1662.8981,1070.1408 34.0089,362.0992 350.5416,-164.3814 z" style="fill:#e80202;fill-opacity:1;stroke:none" />
      <path style="fill:#d90202;fill-opacity:1;stroke:none" d="M 1662.8981,1070.1408 1696.907,1432.24 1463.1124,1286.8617 Z" id="path3877" />
      <path id="path3879" d="m 1662.8981,1070.1408 80.3524,-296.14739 -343.5829,210.75507 z" style="fill:#fd3e3e;fill-opacity:1;stroke:none" />
      <path style="fill:#fa0202;fill-opacity:1;stroke:none" d="m 1662.8981,1070.1408 314.147,-150.76909 70.4035,348.48689 z" id="path3881" />
      <path style="fill:#fe7373;fill-opacity:1;stroke:none" d="m 1499.4019,802.63861 243.8486,-28.6452 -343.5829,210.75507 z" id="path3883" />
      <path id="path3885" d="m 1662.8981,1070.1408 314.147,-150.76909 -233.7946,-145.3783 z" style="fill:#fd1a1a;fill-opacity:1;stroke:none" />
      <path id="path3887" d="m 2259.5096,1042.9353 -282.4645,-123.56359 70.4035,348.48689 z" style="fill:#e80202;fill-opacity:1;stroke:none" />
      <path style="fill:#cd0202;fill-opacity:1;stroke:none" d="m 2259.5096,1042.9353 -1.7693,208.5589 -210.2917,16.3644 z" id="path3889" />
      <path style="fill:#ee0202;fill-opacity:1;stroke:none" d="M 2259.5096,1042.9353 1977.0451,919.37171 2145.6929,802.97547 Z" id="path3891" />
      <path id="path3893" d="m 1928.7321,677.87867 48.313,241.49304 168.6478,-116.39624 z" style="fill:#fd1111;fill-opacity:1;stroke:none" />
      <path style="fill:#fd2f2f;fill-opacity:1;stroke:none" d="m 1928.7321,677.87867 48.313,241.49304 -233.7946,-145.3783 z" id="path3895" />
      <path id="path3897" d="m 1928.7321,677.87867 -216.7408,0.14326 31.2592,95.97148 z" style="fill:#fd2727;fill-opacity:1;stroke:none" />
      <path style="fill:#fd5050;fill-opacity:1;stroke:none" d="m 1499.4019,802.63861 212.5894,-124.61668 31.2592,95.97148 z" id="path3899" />
    </g>
  </g>
</svg>
